# xmcd
#
# Track frame offsets:
#	150
#	14250
#	28062
#	46767
#	60262
#	74495
#	85030
#	99525
#	113835
#	127037
#	150825
#	166175
#	177942
#
# Disc length: 2500 seconds
#
# Revision: 1
# Processed by: cddbd v1.5.2PL0 Copyright (c) Steve Scherf et al.
# Submitted via: audiograbber 1.83.01
#
DISCID=9709c20d
DTITLE=Bluegrass Breakdown - Light Up The Light
DYEAR=1992
DGENRE=Bluegrass
TTITLE0=Breakdown
TTITLE1=Up On Stage
TTITLE2=Seasons Of The Heart
TTITLE3=Muddy River
TTITLE4=Light Up The Night
TTITLE5=Love For The World
TTITLE6=Can't Wait To Get Back
TTITLE7=Don't Buy It
TTITLE8=I'm Going Away
TTITLE9=Gentle River
TTITLE10=Life's Highway
TTITLE11=In My Minds Eye
TTITLE12=After The Gold Rush
EXTD=
EXTT0=
EXTT1=
EXTT2=
EXTT3=
EXTT4=
EXTT5=
EXTT6=
EXTT7=
EXTT8=
EXTT9=
EXTT10=
EXTT11=
EXTT12=
PLAYORDER=
